<svg xmlns="http://www.w3.org/2000/svg" viewBox="0 0 223.65 79.57"><defs><style>.cls-1{fill:none}.cls-5{fill:#9b9a9a}.cls-6{fill:#009b9e}</style><clipPath id="clip-path"><path class="cls-1" d="M16 28.57A12.59 12.59 0 1 0 28.57 16 12.58 12.58 0 0 0 16 28.57"/></clipPath><radialGradient id="Unbenannter_Verlauf_9" cx="-418.92" cy="2075.32" r="1" gradientTransform="translate(5201.72 -25600.12) scale(12.35)" gradientUnits="userSpaceOnUse"><stop offset="0" stop-color="#fff"/><stop offset="1" stop-color="#009b9e"/></radialGradient><clipPath id="clip-path-2"><path class="cls-1" d="M0 0h223.66v79.57H0z"/></clipPath></defs><g id="Ebene_2" data-name="Ebene 2"><g id="Ebene_1-2" data-name="Ebene 1"><g clip-path="url(#clip-path)"><path fill="url(#Unbenannter_Verlauf_9)" d="M15.99 15.99h25.17v25.17H15.99z"/></g><g clip-path="url(#clip-path-2)"><path class="cls-5" d="M28.57 0v13.72a14.85 14.85 0 1 1-14.85 14.85H0A28.57 28.57 0 1 0 28.57 0M69.61 66.49h3.21c2.14 0 3.67-.61 4.59-1.81s1.38-3.44 1.38-6.68-.46-5.47-1.38-6.68-2.41-1.81-4.59-1.81h-3.21zm13.31-8.58q0 6.38-1.93 9a6.56 6.56 0 0 1-5.62 2.59 18.91 18.91 0 0 1-5.76-.69v10.3h-4.13V47.44a25.93 25.93 0 0 1 7.34-.92c3.7 0 6.31.84 7.83 2.5s2.27 4.63 2.27 8.89M91.18 63.05q0 13.77 5.74 13.77t5.73-13.77q0-13.77-5.73-13.77t-5.74 13.77m1.56-15.75a11.56 11.56 0 0 1 8.35 0 7.75 7.75 0 0 1 3.08 2.62q2.61 3.67 2.61 13.31c0 6.42-1.07 11-3.21 13.59a17.38 17.38 0 0 1 5.51.91v1.84H96.92a10.19 10.19 0 0 1-4.18-.78 7.62 7.62 0 0 1-3.07-2.64 13.1 13.1 0 0 1-2-5.12 41.91 41.91 0 0 1-.64-8 42 42 0 0 1 .64-8 13.16 13.16 0 0 1 2-5.12 7.62 7.62 0 0 1 3.07-2.64"/><path class="cls-6" d="M129.73 66.49H133c2.14 0 3.67-.61 4.58-1.81s1.38-3.44 1.38-6.68-.46-5.47-1.38-6.68-2.44-1.81-4.58-1.81h-3.22zM143 57.91q0 6.38-1.92 9a6.59 6.59 0 0 1-5.63 2.59 19 19 0 0 1-5.76-.69v10.3h-4.09V47.44a26 26 0 0 1 7.35-.92c3.7 0 6.31.84 7.82 2.5s2.23 4.63 2.23 8.89M147.63 46.98v32.13h15.61V75.9h-11.48V46.98h-4.13zM170.44 74.91a4.76 4.76 0 0 0 7.62 0q1.24-1.91 1.24-6.82V47h4.13v21.09q0 6.43-2.13 9t-7.05 2.53q-4.91 0-7-2.53t-2.14-9V47h4.13v21.09c0 3.28.42 5.55 1.24 6.82M187.56 55.7q0-4.81 2.18-7c1.46-1.45 3.67-2.18 6.66-2.18a23.39 23.39 0 0 1 7.22.92v2.06h-6a6.15 6.15 0 0 0-4.51 1.5c-.94 1-1.42 2.56-1.42 4.73s1.52 3.9 4.55 5c1.25.46 2.5 1 3.76 1.56a8.15 8.15 0 0 1 3.21 2.71 8.33 8.33 0 0 1 1.33 4.89q0 5.14-2.22 7.39c-1.49 1.5-3.78 2.25-6.89 2.25a24.24 24.24 0 0 1-7.41-.92v-2.02h6c2.29 0 3.94-.52 4.93-1.54s1.49-2.73 1.49-5.12q0-3.08-4.54-4.68c-1.26-.46-2.51-1-3.76-1.56a7.83 7.83 0 0 1-3.22-2.87 9.12 9.12 0 0 1-1.33-5.12"/><path class="cls-5" d="M217.15 48.18v3.42h-5v1.46h11.38V51.6h-5.2v-3.42h5.2v-1.46h-11.42v1.46zm-1 9.69a1.26 1.26 0 0 1 .7-1.14 7.92 7.92 0 0 1 5.09 0 1.32 1.32 0 0 1 .71 1.21v1.14h-6.15a2.12 2.12 0 0 1-.32-1.21m3.25-3q-4.23 0-4.23 2.28a3.2 3.2 0 0 0 .65 1.95h-3.74v1.46h11.06a7.38 7.38 0 0 0 .48-2.73 2.67 2.67 0 0 0-.92-2.24 5.59 5.59 0 0 0-3.3-.72m-3.25 10.49a1.29 1.29 0 0 1 1.46-1.46h5.85v-1.49h-5.85c-1.63 0-2.44.71-2.44 2.12a4.42 4.42 0 0 0 .57 2.19 2 2 0 0 0-.57 1.48 2.6 2.6 0 0 0 .65 1.69V70l-.49.09v1.3h8.13v-1.5h-7a1.08 1.08 0 0 1-.32-.81 1.29 1.29 0 0 1 1.46-1.46h5.85v-1.47h-5.85a3.6 3.6 0 0 0-1.14.17 1.6 1.6 0 0 1-.32-1m1.13 9.35h5.29v.65a2.35 2.35 0 0 1-1 2.1 7.49 7.49 0 0 1-3.75.67 8 8 0 0 1-3.77-.63 2 2 0 0 1-1-1.81v-2.1h-.74a7.54 7.54 0 0 0-.32 2.31 3.74 3.74 0 0 0 .5 2.08q1.08 1.64 5.35 1.63c2.86 0 4.65-.58 5.35-1.73a4.15 4.15 0 0 0 .5-2.22 7.51 7.51 0 0 0-.32-2.39h-6z"/></g></g></g></svg>